<?xml version="1.0" encoding="utf-8"?>
<!-- Generator: Adobe Illustrator 16.0.4, SVG Export Plug-In . SVG Version: 6.00 Build 0)  -->
<!DOCTYPE svg PUBLIC "-//W3C//DTD SVG 1.1//EN" "http://www.w3.org/Graphics/SVG/1.1/DTD/svg11.dtd">
<svg version="1.1" id="Layer_1" xmlns="http://www.w3.org/2000/svg" xmlns:xlink="http://www.w3.org/1999/xlink" x="0px" y="0px"
	 width="395.92px" height="503.44px" viewBox="278.96 28 395.92 503.44" enable-background="new 278.96 28 395.92 503.44"
	 xml:space="preserve">
<path fill="none" stroke="#CB9DC2" stroke-width="8" stroke-miterlimit="10" d="M492.32,157.36"/>
<path fill="#CB9DC2" d="M629.52,195.44H449.76c-26.88,0-48.72-21.84-48.72-48.72c0-24.64,18.479-45.36,42.56-48.72
	c6.16-21.84,26.32-36.96,48.721-36.96c8.96,0,17.92,2.24,25.76,6.72C528.16,43.68,551.68,28,578.56,28
	c36.4,0,65.521,29.68,65.521,65.52c0,2.24,0,5.04-0.561,7.28c18.48,7.28,31.36,25.2,31.36,45.92
	C674.32,175.28,655.28,195.44,629.52,195.44z M492.32,72.24c-19.04,0-35.84,13.44-39.2,32.48c-0.561,2.24-2.8,3.92-5.04,4.48
	c-20.16,1.12-36.4,17.92-36.4,38.08c0,21.28,17.36,38.08,38.08,38.08h179.2c20.16,0,34.16-15.68,34.16-38.08
	c0-16.8-11.2-32.48-28-36.96c-2.8-0.56-4.48-3.36-3.92-6.16c0.56-3.36,1.12-6.72,1.12-10.08c0-30.24-24.641-54.88-54.881-54.88
	c-24.079,0-45.359,15.68-52.64,38.64c-0.56,1.68-1.68,3.36-3.36,3.36c-1.68,0.56-3.359,0-5.039-1.12
	C510.24,75.04,501.28,72.24,492.32,72.24z"/>
<circle fill="#CB9DC2" cx="324.32" cy="181.44" r="12.32"/>
<circle fill="#CB9DC2" cx="306.4" cy="230.16" r="12.32"/>
<circle fill="#CB9DC2" cx="375.84" cy="156.8" r="12.32"/>
<circle fill="#CB9DC2" cx="348.96" cy="285.6" r="22.4"/>
<path fill="#CB9DC2" d="M370.24,342.72l28,69.44l20.72-8.4l-33.6-82.88c-1.68-4.479-5.6-7.28-10.64-7.28H362.4h-10.08l0,0h-6.72l0,0h-10.08H323.2
	c-4.48,0-8.4,2.801-10.64,7.28l-33.6,82.88l20.72,8.4l28-69.44l3.36,1.681l-37.52,100.8h30.24L340,531.44h5.6h6.72h5.6l16.24-86.24
	h30.24L366.88,344.4L370.24,342.72z"/>
<polygon fill="#CB9DC2" points="486.72,138.88 522,163.52 522,149.52 496.8,131.6 522,114.24 522,100.24 486.72,124.88 "/>
<polygon fill="#CB9DC2" points="598.72,124.88 564,100.24 564,114.24 588.64,131.6 564,149.52 564,163.52 598.72,138.88 "/>
<polygon fill="#CB9DC2" points="556.72,100.24 542.72,100.24 528.72,163.52 542.72,163.52 "/>
</svg>
